<?xml version="1.0" encoding="us-ascii" standalone="no"?><svg xmlns="http://www.w3.org/2000/svg" xmlns:xlink="http://www.w3.org/1999/xlink" contentStyleType="text/css" height="955.2px" preserveAspectRatio="none" style="width:1136px;height:955px;background:#FFFFFF;" version="1.1" viewBox="0 0 1136 955" width="1136px" zoomAndPan="magnify"><defs/><g><text fill="#000000" font-family="sans-serif" font-size="11.2" font-weight="bold" lengthAdjust="spacing" textLength="359.2" x="385.2" y="23.9727">Bloquer une table dans le restaurant numero 7 pour 2 personnes</text><rect fill="#FFFFFF" height="820.4481" style="stroke:#181818;stroke-width:0.8000000000000002;" width="8" x="106.4" y="90.2735"/><rect fill="#FFFFFF" height="769.7185" style="stroke:#181818;stroke-width:0.8000000000000002;" width="8" x="241.6" y="115.6383"/><rect fill="#FFFFFF" height="284.9025" style="stroke:#181818;stroke-width:0.8000000000000002;" width="8" x="245.6" y="183.9679"/><rect fill="#FFFFFF" height="34.1648" style="stroke:#181818;stroke-width:0.8000000000000002;" width="8" x="249.6" y="219.7327"/><rect fill="#FFFFFF" height="118.5889" style="stroke:#181818;stroke-width:0.8000000000000002;" width="8" x="442.4" y="320.1167"/><rect fill="#FFFFFF" height="61.9296" style="stroke:#181818;stroke-width:0.8000000000000002;" width="8" x="543.2" y="592.2192"/><rect fill="#FFFFFF" height="76.0944" style="stroke:#181818;stroke-width:0.8000000000000002;" width="8" x="645.6" y="736.1327"/><rect fill="#FFFFFF" height="11.2" style="stroke:#181818;stroke-width:0.8000000000000002;" width="8" x="1089.6" y="402.1408"/><rect fill="#FFFFFF" height="25.3648" style="stroke:#181818;stroke-width:0.8000000000000002;" width="8" x="1089.6" y="617.584"/><rect fill="#FFFFFF" height="11.2" style="stroke:#181818;stroke-width:0.8000000000000002;" width="8" x="1089.6" y="789.8272"/><rect fill="none" height="301.992" style="stroke:#000000;stroke-width:1.2000000000000002;" width="932" x="190.4" y="522.2352"/><rect fill="none" height="152.4784" style="stroke:#000000;stroke-width:1.2000000000000002;" width="916" x="198.4" y="666.1488"/><line style="stroke:#181818;stroke-width:0.4000000000000001;stroke-dasharray:5.0,5.0;" x1="20.8" x2="20.8" y1="63.3087" y2="925.1216"/><line style="stroke:#181818;stroke-width:0.4000000000000001;stroke-dasharray:5.0,5.0;" x1="110" x2="110" y1="63.3087" y2="925.1216"/><line style="stroke:#181818;stroke-width:0.4000000000000001;stroke-dasharray:5.0,5.0;" x1="245.6" x2="245.6" y1="63.3087" y2="925.1216"/><line style="stroke:#181818;stroke-width:0.4000000000000001;stroke-dasharray:5.0,5.0;" x1="446" x2="446" y1="291.5247" y2="925.1216"/><line style="stroke:#181818;stroke-width:0.4000000000000001;stroke-dasharray:5.0,5.0;" x1="546.8" x2="546.8" y1="563.6272" y2="925.1216"/><line style="stroke:#181818;stroke-width:0.4000000000000001;stroke-dasharray:5.0,5.0;" x1="649.2" x2="649.2" y1="707.5408" y2="925.1216"/><line style="stroke:#181818;stroke-width:0.4000000000000001;stroke-dasharray:5.0,5.0;" x1="1093.6" x2="1093.6" y1="63.3087" y2="925.1216"/><rect fill="#E2E2F0" height="26.4543" rx="2" ry="2" style="stroke:#181818;stroke-width:0.4000000000000001;" width="33.6" x="4" y="36.0543"/><text fill="#000000" font-family="sans-serif" font-size="11.2" lengthAdjust="spacing" textLength="22.4" x="9.6" y="53.6271">web</text><rect fill="#E2E2F0" height="26.4543" rx="2" ry="2" style="stroke:#181818;stroke-width:0.4000000000000001;" width="33.6" x="4" y="924.3216"/><text fill="#000000" font-family="sans-serif" font-size="11.2" lengthAdjust="spacing" textLength="22.4" x="9.6" y="941.8944">web</text><rect fill="#E2E2F0" height="26.4543" rx="2" ry="2" style="stroke:#181818;stroke-width:0.4000000000000001;" width="28" x="96.4" y="36.0543"/><text fill="#000000" font-family="sans-serif" font-size="11.2" lengthAdjust="spacing" textLength="16.8" x="102" y="53.6271">api</text><rect fill="#E2E2F0" height="26.4543" rx="2" ry="2" style="stroke:#181818;stroke-width:0.4000000000000001;" width="28" x="96.4" y="924.3216"/><text fill="#000000" font-family="sans-serif" font-size="11.2" lengthAdjust="spacing" textLength="16.8" x="102" y="941.8944">api</text><rect fill="#E2E2F0" height="26.4543" rx="2" ry="2" style="stroke:#181818;stroke-width:0.4000000000000001;" width="78.4" x="206.4" y="36.0543"/><text fill="#000000" font-family="sans-serif" font-size="11.2" lengthAdjust="spacing" textLength="67.2" x="212" y="53.6271">serviceResto</text><rect fill="#E2E2F0" height="26.4543" rx="2" ry="2" style="stroke:#181818;stroke-width:0.4000000000000001;" width="78.4" x="206.4" y="924.3216"/><text fill="#000000" font-family="sans-serif" font-size="11.2" lengthAdjust="spacing" textLength="67.2" x="212" y="941.8944">serviceResto</text><rect fill="#E2E2F0" height="26.4543" rx="2" ry="2" style="stroke:#181818;stroke-width:0.4000000000000001;" width="111.2" x="390.8" y="924.3216"/><text fill="#000000" font-family="sans-serif" font-size="11.2" lengthAdjust="spacing" textLength="100" x="396.4" y="941.8944">restau: Restaurant</text><rect fill="#E2E2F0" height="26.4543" rx="2" ry="2" style="stroke:#181818;stroke-width:0.4000000000000001;" width="74.4" x="510" y="924.3216"/><text fill="#000000" font-family="sans-serif" font-size="11.2" lengthAdjust="spacing" textLength="63.2" x="515.6" y="941.8944">table: Table</text><rect fill="#E2E2F0" height="26.4543" rx="2" ry="2" style="stroke:#181818;stroke-width:0.4000000000000001;" width="114.4" x="592.4" y="924.3216"/><text fill="#000000" font-family="sans-serif" font-size="11.2" lengthAdjust="spacing" textLength="103.2" x="598" y="941.8944">reserv: Reservation</text><rect fill="#E2E2F0" height="26.4543" rx="2" ry="2" style="stroke:#181818;stroke-width:0.4000000000000001;" width="25.6" x="1080.8" y="36.0543"/><text fill="#000000" font-family="sans-serif" font-size="11.2" lengthAdjust="spacing" textLength="14.4" x="1086.4" y="53.6271">bd</text><rect fill="#E2E2F0" height="26.4543" rx="2" ry="2" style="stroke:#181818;stroke-width:0.4000000000000001;" width="25.6" x="1080.8" y="924.3216"/><text fill="#000000" font-family="sans-serif" font-size="11.2" lengthAdjust="spacing" textLength="14.4" x="1086.4" y="941.8944">bd</text><rect fill="#FFFFFF" height="820.4481" style="stroke:#181818;stroke-width:0.8000000000000002;" width="8" x="106.4" y="90.2735"/><rect fill="#FFFFFF" height="769.7185" style="stroke:#181818;stroke-width:0.8000000000000002;" width="8" x="241.6" y="115.6383"/><rect fill="#FFFFFF" height="284.9025" style="stroke:#181818;stroke-width:0.8000000000000002;" width="8" x="245.6" y="183.9679"/><rect fill="#FFFFFF" height="34.1648" style="stroke:#181818;stroke-width:0.8000000000000002;" width="8" x="249.6" y="219.7327"/><rect fill="#FFFFFF" height="118.5889" style="stroke:#181818;stroke-width:0.8000000000000002;" width="8" x="442.4" y="320.1167"/><rect fill="#FFFFFF" height="61.9296" style="stroke:#181818;stroke-width:0.8000000000000002;" width="8" x="543.2" y="592.2192"/><rect fill="#FFFFFF" height="76.0944" style="stroke:#181818;stroke-width:0.8000000000000002;" width="8" x="645.6" y="736.1327"/><rect fill="#FFFFFF" height="11.2" style="stroke:#181818;stroke-width:0.8000000000000002;" width="8" x="1089.6" y="402.1408"/><rect fill="#FFFFFF" height="25.3648" style="stroke:#181818;stroke-width:0.8000000000000002;" width="8" x="1089.6" y="617.584"/><rect fill="#FFFFFF" height="11.2" style="stroke:#181818;stroke-width:0.8000000000000002;" width="8" x="1089.6" y="789.8272"/><polygon fill="#181818" points="96.8,87.0735,104.8,90.2735,96.8,93.4735,100,90.2735" style="stroke:#181818;stroke-width:0.8000000000000002;"/><line style="stroke:#181818;stroke-width:0.8000000000000002;" x1="20.8" x2="101.6" y1="90.2735" y2="90.2735"/><text fill="#000000" font-family="sans-serif" font-size="10.4" lengthAdjust="spacing" textLength="70.4" x="26.4" y="85.6263">POST /tables/7</text><polygon fill="#181818" points="232,112.4383,240,115.6383,232,118.8383,235.2,115.6383" style="stroke:#181818;stroke-width:0.8000000000000002;"/><line style="stroke:#181818;stroke-width:0.8000000000000002;" x1="114.4" x2="236.8" y1="115.6383" y2="115.6383"/><text fill="#000000" font-family="sans-serif" font-size="10.4" lengthAdjust="spacing" textLength="112" x="120" y="110.9911">bloquerTable(7, date, 2)</text><rect fill="#EEEEEE" height="2.4" style="stroke:#EEEEEE;stroke-width:0.8000000000000002;" width="1130.4" x="0" y="139.5207"/><line style="stroke:#000000;stroke-width:0.8000000000000002;" x1="0" x2="1130.4" y1="139.5207" y2="139.5207"/><line style="stroke:#000000;stroke-width:0.8000000000000002;" x1="0" x2="1130.4" y1="141.9207" y2="141.9207"/><rect fill="#EEEEEE" height="20.5648" style="stroke:#000000;stroke-width:1.6000000000000003;" width="188" x="471.2" y="130.0383"/><text fill="#000000" font-family="sans-serif" font-size="10.4" font-weight="bold" lengthAdjust="spacing" textLength="174.4" x="476" y="144.3559">lock reservation, restaurant, tabl</text><line style="stroke:#181818;stroke-width:0.8000000000000002;" x1="249.6" x2="287.2" y1="173.5679" y2="173.5679"/><line style="stroke:#181818;stroke-width:0.8000000000000002;" x1="287.2" x2="287.2" y1="173.5679" y2="183.9679"/><line style="stroke:#181818;stroke-width:0.8000000000000002;" x1="254.4" x2="287.2" y1="183.9679" y2="183.9679"/><polygon fill="#181818" points="262.4,180.7679,254.4,183.9679,262.4,187.1679,259.2,183.9679" style="stroke:#181818;stroke-width:0.8000000000000002;"/><text fill="#000000" font-family="sans-serif" font-size="10.4" lengthAdjust="spacing" textLength="181.6" x="259.2" y="168.9207">this.getTablesLibreRestaurant(7, date)</text><line style="stroke:#181818;stroke-width:0.8000000000000002;" x1="253.6" x2="291.2" y1="209.3327" y2="209.3327"/><line style="stroke:#181818;stroke-width:0.8000000000000002;" x1="291.2" x2="291.2" y1="209.3327" y2="219.7327"/><line style="stroke:#181818;stroke-width:0.8000000000000002;" x1="258.4" x2="291.2" y1="219.7327" y2="219.7327"/><polygon fill="#181818" points="266.4,216.5327,258.4,219.7327,266.4,222.9327,263.2,219.7327" style="stroke:#181818;stroke-width:0.8000000000000002;"/><text fill="#000000" font-family="sans-serif" font-size="10.4" lengthAdjust="spacing" textLength="100" x="263.2" y="204.6855">this.getRestaurants()</text><line style="stroke:#181818;stroke-width:0.8000000000000002;stroke-dasharray:2.0,2.0;" x1="257.6" x2="291.2" y1="253.0975" y2="253.0975"/><line style="stroke:#181818;stroke-width:0.8000000000000002;stroke-dasharray:2.0,2.0;" x1="291.2" x2="291.2" y1="253.0975" y2="263.4975"/><line style="stroke:#181818;stroke-width:0.8000000000000002;stroke-dasharray:2.0,2.0;" x1="253.6" x2="291.2" y1="263.4975" y2="263.4975"/><polygon fill="#181818" points="261.6,260.2975,253.6,263.4975,261.6,266.6975,258.4,263.4975" style="stroke:#181818;stroke-width:0.8000000000000002;"/><text fill="#000000" font-family="sans-serif" font-size="10.4" lengthAdjust="spacing" textLength="55.2" x="263.2" y="248.4503">restaurants</text><polygon fill="#181818" points="381.2,281.6624,389.2,284.8624,381.2,288.0624,384.4,284.8624" style="stroke:#181818;stroke-width:0.8000000000000002;"/><line style="stroke:#181818;stroke-width:0.8000000000000002;" x1="253.6" x2="386" y1="284.8624" y2="284.8624"/><text fill="#000000" font-family="sans-serif" font-size="10.4" lengthAdjust="spacing" textLength="85.6" x="259.2" y="280.2152">restaurants.get(7)</text><rect fill="#E2E2F0" height="26.4543" rx="2" ry="2" style="stroke:#181818;stroke-width:0.4000000000000001;" width="111.2" x="390.8" y="265.8975"/><text fill="#000000" font-family="sans-serif" font-size="11.2" lengthAdjust="spacing" textLength="100" x="396.4" y="283.4703">restau: Restaurant</text><polygon fill="#181818" points="432.8,316.9167,440.8,320.1167,432.8,323.3167,436,320.1167" style="stroke:#181818;stroke-width:0.8000000000000002;"/><line style="stroke:#181818;stroke-width:0.8000000000000002;" x1="253.6" x2="437.6" y1="320.1167" y2="320.1167"/><text fill="#000000" font-family="sans-serif" font-size="10.4" lengthAdjust="spacing" textLength="126.4" x="259.2" y="315.4695">restau.getTableLibre(date)</text><polygon fill="#181818" points="1080,398.9408,1088,402.1408,1080,405.3408,1083.2,402.1408" style="stroke:#181818;stroke-width:0.8000000000000002;"/><line style="stroke:#181818;stroke-width:0.8000000000000002;" x1="450.4" x2="1084.8" y1="402.1408" y2="402.1408"/><text fill="#000000" font-family="sans-serif" font-size="10.4" lengthAdjust="spacing" textLength="95.2" x="456" y="340.8343">SELECT * FROM tabl</text><text fill="#000000" font-family="sans-serif" font-size="10.4" lengthAdjust="spacing" textLength="105.6" x="475.2" y="354.9991">WHERE numrestau = ?</text><text fill="#000000" font-family="sans-serif" font-size="10.4" lengthAdjust="spacing" textLength="100" x="475.2" y="369.1639">AND numtab NOT IN</text><text fill="#000000" font-family="sans-serif" font-size="10.4" lengthAdjust="spacing" textLength="167.2" x="494.4" y="383.3287">(SELECT numtab FROM reservation</text><text fill="#000000" font-family="sans-serif" font-size="10.4" lengthAdjust="spacing" textLength="172" x="494.4" y="397.4936">WHERE numrestau = ? AND date = ?)</text><polygon fill="#181818" points="459.2,410.1408,451.2,413.3408,459.2,416.5408,456,413.3408" style="stroke:#181818;stroke-width:0.8000000000000002;"/><line style="stroke:#181818;stroke-width:0.8000000000000002;stroke-dasharray:2.0,2.0;" x1="454.4" x2="1092.8" y1="413.3408" y2="413.3408"/><polygon fill="#181818" points="262.4,435.5056,254.4,438.7056,262.4,441.9056,259.2,438.7056" style="stroke:#181818;stroke-width:0.8000000000000002;"/><line style="stroke:#181818;stroke-width:0.8000000000000002;stroke-dasharray:2.0,2.0;" x1="257.6" x2="445.6" y1="438.7056" y2="438.7056"/><text fill="#000000" font-family="sans-serif" font-size="10.4" lengthAdjust="spacing" textLength="87.2" x="267.2" y="434.0584">tables: List&lt;Table&gt;</text><line style="stroke:#181818;stroke-width:0.8000000000000002;stroke-dasharray:2.0,2.0;" x1="253.6" x2="287.2" y1="468.0704" y2="468.0704"/><line style="stroke:#181818;stroke-width:0.8000000000000002;stroke-dasharray:2.0,2.0;" x1="287.2" x2="287.2" y1="468.0704" y2="478.4704"/><line style="stroke:#181818;stroke-width:0.8000000000000002;stroke-dasharray:2.0,2.0;" x1="249.6" x2="287.2" y1="478.4704" y2="478.4704"/><polygon fill="#181818" points="257.6,475.2704,249.6,478.4704,257.6,481.6704,254.4,478.4704" style="stroke:#181818;stroke-width:0.8000000000000002;"/><text fill="#000000" font-family="sans-serif" font-size="10.4" lengthAdjust="spacing" textLength="28.8" x="259.2" y="463.4232">tables</text><line style="stroke:#181818;stroke-width:0.8000000000000002;" x1="249.6" x2="283.2" y1="499.8352" y2="499.8352"/><line style="stroke:#181818;stroke-width:0.8000000000000002;" x1="283.2" x2="283.2" y1="499.8352" y2="510.2352"/><line style="stroke:#181818;stroke-width:0.8000000000000002;" x1="250.4" x2="283.2" y1="510.2352" y2="510.2352"/><polygon fill="#181818" points="258.4,507.0352,250.4,510.2352,258.4,513.4352,255.2,510.2352" style="stroke:#181818;stroke-width:0.8000000000000002;"/><text fill="#000000" font-family="sans-serif" font-size="10.4" lengthAdjust="spacing" textLength="48" x="255.2" y="495.188">reserv = ""</text><path d="M190.4,522.2352 L248.8,522.2352 L248.8,530 L240.8,538 L190.4,538 L190.4,522.2352 " fill="#EEEEEE" style="stroke:#000000;stroke-width:1.2000000000000002;"/><rect fill="none" height="301.992" style="stroke:#000000;stroke-width:1.2000000000000002;" width="932" x="190.4" y="522.2352"/><text fill="#000000" font-family="sans-serif" font-size="10.4" font-weight="bold" lengthAdjust="spacing" textLength="22.4" x="202.4" y="534.1528">loop</text><text fill="#000000" font-family="sans-serif" font-size="8.8" font-weight="bold" lengthAdjust="spacing" textLength="64" x="260.8" y="533.2423">[tables : table]</text><polygon fill="#181818" points="500.4,539.6,508.4,542.8,500.4,546,503.6,542.8" style="stroke:#181818;stroke-width:0.8000000000000002;"/><line style="stroke:#181818;stroke-width:0.8000000000000002;" x1="249.6" x2="505.2" y1="542.8" y2="542.8"/><rect fill="#E2E2F0" height="26.4543" rx="2" ry="2" style="stroke:#181818;stroke-width:0.4000000000000001;" width="74.4" x="510" y="538"/><text fill="#000000" font-family="sans-serif" font-size="11.2" lengthAdjust="spacing" textLength="63.2" x="515.6" y="555.5728">table: Table</text><polygon fill="#181818" points="533.6,589.0192,541.6,592.2192,533.6,595.4192,536.8,592.2192" style="stroke:#181818;stroke-width:0.8000000000000002;"/><line style="stroke:#181818;stroke-width:0.8000000000000002;" x1="249.6" x2="538.4" y1="592.2192" y2="592.2192"/><text fill="#000000" font-family="sans-serif" font-size="10.4" lengthAdjust="spacing" textLength="88" x="255.2" y="587.572">table.getNbPlace()</text><polygon fill="#181818" points="1080,614.384,1088,617.584,1080,620.784,1083.2,617.584" style="stroke:#181818;stroke-width:0.8000000000000002;"/><line style="stroke:#181818;stroke-width:0.8000000000000002;" x1="551.2" x2="1084.8" y1="617.584" y2="617.584"/><text fill="#000000" font-family="sans-serif" font-size="10.4" lengthAdjust="spacing" textLength="34.4" x="556.8" y="612.9368">SELECT</text><polygon fill="#181818" points="560,639.7488,552,642.9488,560,646.1488,556.8,642.9488" style="stroke:#181818;stroke-width:0.8000000000000002;"/><line style="stroke:#181818;stroke-width:0.8000000000000002;stroke-dasharray:2.0,2.0;" x1="555.2" x2="1092.8" y1="642.9488" y2="642.9488"/><text fill="#000000" font-family="sans-serif" font-size="10.4" lengthAdjust="spacing" textLength="37.6" x="564.8" y="638.3016">nbPlace</text><polygon fill="#181818" points="258.4,650.9488,250.4,654.1488,258.4,657.3488,255.2,654.1488" style="stroke:#181818;stroke-width:0.8000000000000002;"/><line style="stroke:#181818;stroke-width:0.8000000000000002;stroke-dasharray:2.0,2.0;" x1="253.6" x2="546.4" y1="654.1488" y2="654.1488"/><path d="M198.4,666.1488 L248.8,666.1488 L248.8,673.9136 L240.8,681.9136 L198.4,681.9136 L198.4,666.1488 " fill="#EEEEEE" style="stroke:#000000;stroke-width:1.2000000000000002;"/><rect fill="none" height="152.4784" style="stroke:#000000;stroke-width:1.2000000000000002;" width="916" x="198.4" y="666.1488"/><text fill="#000000" font-family="sans-serif" font-size="10.4" font-weight="bold" lengthAdjust="spacing" textLength="14.4" x="210.4" y="678.0664">alt</text><text fill="#000000" font-family="sans-serif" font-size="8.8" font-weight="bold" lengthAdjust="spacing" textLength="60.8" x="260.8" y="677.1559">[nbPlace &gt;= 2]</text><polygon fill="#181818" points="582.8,697.6784,590.8,700.8784,582.8,704.0784,586,700.8784" style="stroke:#181818;stroke-width:0.8000000000000002;"/><line style="stroke:#181818;stroke-width:0.8000000000000002;" x1="249.6" x2="587.6" y1="700.8784" y2="700.8784"/><text fill="#000000" font-family="sans-serif" font-size="10.4" lengthAdjust="spacing" textLength="273.6" x="255.2" y="696.2312">new Reservation(" ", " ", 2, " ", 7, date, dateCourante, table)</text><rect fill="#E2E2F0" height="26.4543" rx="2" ry="2" style="stroke:#181818;stroke-width:0.4000000000000001;" width="114.4" x="592.4" y="681.9136"/><text fill="#000000" font-family="sans-serif" font-size="11.2" lengthAdjust="spacing" textLength="103.2" x="598" y="699.4863">reserv: Reservation</text><polygon fill="#181818" points="636,732.9327,644,736.1327,636,739.3327,639.2,736.1327" style="stroke:#181818;stroke-width:0.8000000000000002;"/><line style="stroke:#181818;stroke-width:0.8000000000000002;" x1="249.6" x2="640.8" y1="736.1327" y2="736.1327"/><text fill="#000000" font-family="sans-serif" font-size="10.4" lengthAdjust="spacing" textLength="60" x="255.2" y="731.4855">reserv.save()</text><polygon fill="#181818" points="1080,786.6272,1088,789.8272,1080,793.0272,1083.2,789.8272" style="stroke:#181818;stroke-width:0.8000000000000002;"/><line style="stroke:#181818;stroke-width:0.8000000000000002;" x1="653.6" x2="1084.8" y1="789.8272" y2="789.8272"/><text fill="#000000" font-family="sans-serif" font-size="10.4" lengthAdjust="spacing" textLength="61.6" x="659.2" y="756.8504">INSERT INTO</text><text fill="#000000" font-family="sans-serif" font-size="10.4" lengthAdjust="spacing" textLength="399.2" x="678.4" y="771.0152">reservation (nom, prenom, nbpers, telephone, numrestau, date, dateajout, numtab)</text><text fill="#000000" font-family="sans-serif" font-size="10.4" lengthAdjust="spacing" textLength="234.4" x="678.4" y="785.18">VALUES (" ", " ", 2, " ", 7, date, dateCourante, table)</text><polygon fill="#181818" points="662.4,797.8272,654.4,801.0272,662.4,804.2272,659.2,801.0272" style="stroke:#181818;stroke-width:0.8000000000000002;"/><line style="stroke:#181818;stroke-width:0.8000000000000002;stroke-dasharray:2.0,2.0;" x1="657.6" x2="1092.8" y1="801.0272" y2="801.0272"/><polygon fill="#181818" points="258.4,809.0272,250.4,812.2272,258.4,815.4272,255.2,812.2272" style="stroke:#181818;stroke-width:0.8000000000000002;"/><line style="stroke:#181818;stroke-width:0.8000000000000002;stroke-dasharray:2.0,2.0;" x1="253.6" x2="648.8" y1="812.2272" y2="812.2272"/><rect fill="#EEEEEE" height="2.4" style="stroke:#EEEEEE;stroke-width:0.8000000000000002;" width="1130.4" x="0" y="847.3096"/><line style="stroke:#000000;stroke-width:0.8000000000000002;" x1="0" x2="1130.4" y1="847.3096" y2="847.3096"/><line style="stroke:#000000;stroke-width:0.8000000000000002;" x1="0" x2="1130.4" y1="849.7096" y2="849.7096"/><rect fill="#EEEEEE" height="20.5648" style="stroke:#000000;stroke-width:1.6000000000000003;" width="202.4" x="464" y="837.8272"/><text fill="#000000" font-family="sans-serif" font-size="10.4" font-weight="bold" lengthAdjust="spacing" textLength="188.8" x="468.8" y="852.1448">unlock reservation, restaurant, tabl</text><polygon fill="#181818" points="123.2,882.1568,115.2,885.3568,123.2,888.5568,120,885.3568" style="stroke:#181818;stroke-width:0.8000000000000002;"/><line style="stroke:#181818;stroke-width:0.8000000000000002;stroke-dasharray:2.0,2.0;" x1="118.4" x2="244.8" y1="885.3568" y2="885.3568"/><text fill="#000000" font-family="sans-serif" font-size="10.4" lengthAdjust="spacing" textLength="56" x="128" y="880.7096">json(reserv)</text><polygon fill="#181818" points="29.6,907.5216,21.6,910.7216,29.6,913.9216,26.4,910.7216" style="stroke:#181818;stroke-width:0.8000000000000002;"/><line style="stroke:#181818;stroke-width:0.8000000000000002;stroke-dasharray:2.0,2.0;" x1="24.8" x2="109.6" y1="910.7216" y2="910.7216"/><text fill="#000000" font-family="sans-serif" font-size="10.4" lengthAdjust="spacing" textLength="20" x="34.4" y="906.0744">json</text><!--SRC=[dLRVRzem47xtNt7A2s4AZSGB4cgOkevfbHXKGBSNNfnWjUc2dSLE- -_FFYSX2ORH8P4ev- - - - -cp1ozAvN8QXdb6kIeFsKqY3g5aVqh64pRQf_Ive0T2mW4jbU3b8MR582H4fIfZy2KJ6bX0oHae6cl9dd89-bqmgMXPQ4xGIgmGC85Sb0MC8MU559mpISWxYs4q0vgdC8N7rMOB8TB8S49eej8tgfXP9SH0DDAJh7XB4xRMzCBJIh7rO6kq_4cWxIiMm7XuLE-g4195a8daj_5GBr2L2Xwqt0qm48WYGdh6NERLIofldfb2-tAHnWMkMQhQdmlEVC34aLVwvndxX2x6Ox2IxDbPtvA2eTZ2ft1qm7FvxO1rRPaW_CcGV5IvoI-cr-zdrEKUSH9gG_5UqsxcY_dz5Zx1j_NgXottZk_Kh-_pzTnqgzM523wZ_6xvrKWr3fQhBJmiKRfJViLJhI5Pgwagb8lLC9emp4Shb7X_nl7RqSWijcg5q6uQ3UXC7ksUci8YbUeMKpdh5DwTmYiwoH9VQg8h6jpcJEV2q_XCYBoYhVa9w5_TZ2YP0WRXuOh3GXTq5QgoPNfj6JzcD65wand5OsGkrewirs1TTLqnXuQjh5RXrYXYUdLsk8-rFar5kmuERsccQZimYs2CmdPoRIMm3-ekzXgGUzUUu4qixBqjyZtm0i37k7etWzeyxmMs7BEJL-_j_p1fnJUIljLrwzRE6Lc3qrxGcCgcI6ZRQQckyCDoCr-RMR1TuJvlxtkVYqC0US7mpMDptkdOMCRo5y5rcCqmQ6U1lefI1TKm6IBfpxl5qtm37yxVIVZ_3AiQC4q-JXlmN1DUR9dUZ7436TyJyzVdSiclEvdDPG2jzqV9gxvO-5PzU6agcNk78R0N3wFLHfiBnry0]--></g></svg>