<?xml version="1.0" encoding="us-ascii" standalone="no"?><svg xmlns="http://www.w3.org/2000/svg" xmlns:xlink="http://www.w3.org/1999/xlink" contentStyleType="text/css" height="568px" preserveAspectRatio="none" style="width:754px;height:568px;background:#FFFFFF;" version="1.1" viewBox="0 0 754 568" width="754.4px" zoomAndPan="magnify"><defs/><g><text fill="#000000" font-family="sans-serif" font-size="11.2" font-weight="bold" lengthAdjust="spacing" textLength="359.2" x="192.6" y="23.9727">Bloquer une table dans le restaurant numero 7 pour 2 personnes</text><rect fill="#FFFFFF" height="373.9377" style="stroke:#181818;stroke-width:0.8000000000000002;" width="8" x="96.8" y="115.0735"/><rect fill="#FFFFFF" height="337.3728" style="stroke:#181818;stroke-width:0.8000000000000002;" width="8" x="341.6" y="140.4383"/><rect fill="#FFFFFF" height="34.1648" style="stroke:#181818;stroke-width:0.8000000000000002;" width="8" x="345.6" y="172.2031"/><rect fill="#FFFFFF" height="11.2" style="stroke:#181818;stroke-width:0.8000000000000002;" width="8" x="572.4" y="272.5871"/><rect fill="#FFFFFF" height="11.2" style="stroke:#181818;stroke-width:0.8000000000000002;" width="8" x="572.4" y="309.1519"/><rect fill="#FFFFFF" height="11.2" style="stroke:#181818;stroke-width:0.8000000000000002;" width="8" x="572.4" y="345.7167"/><rect fill="#FFFFFF" height="11.2" style="stroke:#181818;stroke-width:0.8000000000000002;" width="8" x="572.4" y="382.2815"/><rect fill="#FFFFFF" height="47.7648" style="stroke:#181818;stroke-width:0.8000000000000002;" width="8" x="572.4" y="418.8463"/><rect fill="#FFFFFF" height="11.2" style="stroke:#181818;stroke-width:0.8000000000000002;" width="8" x="722.8" y="444.2111"/><line style="stroke:#181818;stroke-width:0.4000000000000001;stroke-dasharray:5.0,5.0;" x1="20.8" x2="20.8" y1="88.1087" y2="503.4111"/><line style="stroke:#181818;stroke-width:0.4000000000000001;stroke-dasharray:5.0,5.0;" x1="100.4" x2="100.4" y1="88.1087" y2="503.4111"/><line style="stroke:#181818;stroke-width:0.4000000000000001;stroke-dasharray:5.0,5.0;" x1="345.6" x2="345.6" y1="88.1087" y2="503.4111"/><line style="stroke:#181818;stroke-width:0.4000000000000001;stroke-dasharray:5.0,5.0;" x1="576" x2="576" y1="243.9951" y2="503.4111"/><line style="stroke:#181818;stroke-width:0.4000000000000001;stroke-dasharray:5.0,5.0;" x1="726.8" x2="726.8" y1="88.1087" y2="503.4111"/><rect fill="#E2E2F0" height="26.4543" rx="2" ry="2" style="stroke:#181818;stroke-width:0.4000000000000001;" width="33.6" x="4" y="60.8543"/><text fill="#000000" font-family="sans-serif" font-size="11.2" lengthAdjust="spacing" textLength="22.4" x="9.6" y="78.4271">web</text><rect fill="#E2E2F0" height="26.4543" rx="2" ry="2" style="stroke:#181818;stroke-width:0.4000000000000001;" width="33.6" x="4" y="502.6111"/><text fill="#000000" font-family="sans-serif" font-size="11.2" lengthAdjust="spacing" textLength="22.4" x="9.6" y="520.1839">web</text><rect fill="#E2E2F0" height="26.4543" rx="2" ry="2" style="stroke:#181818;stroke-width:0.4000000000000001;" width="28" x="86.8" y="60.8543"/><text fill="#000000" font-family="sans-serif" font-size="11.2" lengthAdjust="spacing" textLength="16.8" x="92.4" y="78.4271">api</text><rect fill="#E2E2F0" height="26.4543" rx="2" ry="2" style="stroke:#181818;stroke-width:0.4000000000000001;" width="28" x="86.8" y="502.6111"/><text fill="#000000" font-family="sans-serif" font-size="11.2" lengthAdjust="spacing" textLength="16.8" x="92.4" y="520.1839">api</text><rect fill="#E2E2F0" height="26.4543" rx="2" ry="2" style="stroke:#181818;stroke-width:0.4000000000000001;" width="78.4" x="306.4" y="60.8543"/><text fill="#000000" font-family="sans-serif" font-size="11.2" lengthAdjust="spacing" textLength="67.2" x="312" y="78.4271">serviceResto</text><rect fill="#E2E2F0" height="26.4543" rx="2" ry="2" style="stroke:#181818;stroke-width:0.4000000000000001;" width="78.4" x="306.4" y="502.6111"/><text fill="#000000" font-family="sans-serif" font-size="11.2" lengthAdjust="spacing" textLength="67.2" x="312" y="520.1839">serviceResto</text><rect fill="#E2E2F0" height="26.4543" rx="2" ry="2" style="stroke:#181818;stroke-width:0.4000000000000001;" width="114.4" x="519.2" y="502.6111"/><text fill="#000000" font-family="sans-serif" font-size="11.2" lengthAdjust="spacing" textLength="103.2" x="524.8" y="520.1839">reserv: Reservation</text><text fill="#000000" font-family="sans-serif" font-size="11.2" lengthAdjust="spacing" textLength="14.4" x="717.2" y="84.8271">bd</text><path d="M712.4,44.0543 C712.4,36.0543 726.8,36.0543 726.8,36.0543 C726.8,36.0543 741.2,36.0543 741.2,44.0543 L741.2,64.8543 C741.2,72.8543 726.8,72.8543 726.8,72.8543 C726.8,72.8543 712.4,72.8543 712.4,64.8543 L712.4,44.0543 " fill="#E2E2F0" style="stroke:#181818;stroke-width:1.2000000000000002;"/><path d="M712.4,44.0543 C712.4,52.0543 726.8,52.0543 726.8,52.0543 C726.8,52.0543 741.2,52.0543 741.2,44.0543 " fill="none" style="stroke:#181818;stroke-width:1.2000000000000002;"/><text fill="#000000" font-family="sans-serif" font-size="11.2" lengthAdjust="spacing" textLength="14.4" x="717.2" y="514.5839">bd</text><path d="M712.4,525.8655 C712.4,517.8655 726.8,517.8655 726.8,517.8655 C726.8,517.8655 741.2,517.8655 741.2,525.8655 L741.2,546.6655 C741.2,554.6655 726.8,554.6655 726.8,554.6655 C726.8,554.6655 712.4,554.6655 712.4,546.6655 L712.4,525.8655 " fill="#E2E2F0" style="stroke:#181818;stroke-width:1.2000000000000002;"/><path d="M712.4,525.8655 C712.4,533.8655 726.8,533.8655 726.8,533.8655 C726.8,533.8655 741.2,533.8655 741.2,525.8655 " fill="none" style="stroke:#181818;stroke-width:1.2000000000000002;"/><rect fill="#FFFFFF" height="373.9377" style="stroke:#181818;stroke-width:0.8000000000000002;" width="8" x="96.8" y="115.0735"/><rect fill="#FFFFFF" height="337.3728" style="stroke:#181818;stroke-width:0.8000000000000002;" width="8" x="341.6" y="140.4383"/><rect fill="#FFFFFF" height="34.1648" style="stroke:#181818;stroke-width:0.8000000000000002;" width="8" x="345.6" y="172.2031"/><rect fill="#FFFFFF" height="11.2" style="stroke:#181818;stroke-width:0.8000000000000002;" width="8" x="572.4" y="272.5871"/><rect fill="#FFFFFF" height="11.2" style="stroke:#181818;stroke-width:0.8000000000000002;" width="8" x="572.4" y="309.1519"/><rect fill="#FFFFFF" height="11.2" style="stroke:#181818;stroke-width:0.8000000000000002;" width="8" x="572.4" y="345.7167"/><rect fill="#FFFFFF" height="11.2" style="stroke:#181818;stroke-width:0.8000000000000002;" width="8" x="572.4" y="382.2815"/><rect fill="#FFFFFF" height="47.7648" style="stroke:#181818;stroke-width:0.8000000000000002;" width="8" x="572.4" y="418.8463"/><rect fill="#FFFFFF" height="11.2" style="stroke:#181818;stroke-width:0.8000000000000002;" width="8" x="722.8" y="444.2111"/><polygon fill="#181818" points="87.2,111.8735,95.2,115.0735,87.2,118.2735,90.4,115.0735" style="stroke:#181818;stroke-width:0.8000000000000002;"/><line style="stroke:#181818;stroke-width:0.8000000000000002;" x1="20.8" x2="92" y1="115.0735" y2="115.0735"/><text fill="#000000" font-family="sans-serif" font-size="10.4" lengthAdjust="spacing" textLength="60.8" x="26.4" y="110.4263">POST /tables</text><polygon fill="#181818" points="332,137.2383,340,140.4383,332,143.6383,335.2,140.4383" style="stroke:#181818;stroke-width:0.8000000000000002;"/><line style="stroke:#181818;stroke-width:0.8000000000000002;" x1="104.8" x2="336.8" y1="140.4383" y2="140.4383"/><text fill="#000000" font-family="sans-serif" font-size="10.4" lengthAdjust="spacing" textLength="221.6" x="110.4" y="135.7911">reserverTable(nom, prenom, telephone, ticket)</text><line style="stroke:#181818;stroke-width:0.8000000000000002;" x1="349.6" x2="387.2" y1="161.8031" y2="161.8031"/><line style="stroke:#181818;stroke-width:0.8000000000000002;" x1="387.2" x2="387.2" y1="161.8031" y2="172.2031"/><line style="stroke:#181818;stroke-width:0.8000000000000002;" x1="354.4" x2="387.2" y1="172.2031" y2="172.2031"/><polygon fill="#181818" points="362.4,169.0031,354.4,172.2031,362.4,175.4031,359.2,172.2031" style="stroke:#181818;stroke-width:0.8000000000000002;"/><text fill="#000000" font-family="sans-serif" font-size="10.4" lengthAdjust="spacing" textLength="112" x="359.2" y="157.1559">decryptMessage(ticket)</text><line style="stroke:#181818;stroke-width:0.8000000000000002;stroke-dasharray:2.0,2.0;" x1="353.6" x2="387.2" y1="205.5679" y2="205.5679"/><line style="stroke:#181818;stroke-width:0.8000000000000002;stroke-dasharray:2.0,2.0;" x1="387.2" x2="387.2" y1="205.5679" y2="215.9679"/><line style="stroke:#181818;stroke-width:0.8000000000000002;stroke-dasharray:2.0,2.0;" x1="349.6" x2="387.2" y1="215.9679" y2="215.9679"/><polygon fill="#181818" points="357.6,212.7679,349.6,215.9679,357.6,219.1679,354.4,215.9679" style="stroke:#181818;stroke-width:0.8000000000000002;"/><text fill="#000000" font-family="sans-serif" font-size="10.4" lengthAdjust="spacing" textLength="26.4" x="359.2" y="200.9207">ticket</text><polygon fill="#181818" points="509.6,234.1327,517.6,237.3327,509.6,240.5327,512.8,237.3327" style="stroke:#181818;stroke-width:0.8000000000000002;"/><line style="stroke:#181818;stroke-width:0.8000000000000002;" x1="349.6" x2="514.4" y1="237.3327" y2="237.3327"/><text fill="#000000" font-family="sans-serif" font-size="10.4" lengthAdjust="spacing" textLength="150.4" x="355.2" y="232.6855">objectMapper.readValue(ticket)</text><rect fill="#E2E2F0" height="26.4543" rx="2" ry="2" style="stroke:#181818;stroke-width:0.4000000000000001;" width="114.4" x="519.2" y="218.3679"/><text fill="#000000" font-family="sans-serif" font-size="11.2" lengthAdjust="spacing" textLength="103.2" x="524.8" y="235.9407">reserv: Reservation</text><polygon fill="#181818" points="562.8,269.3871,570.8,272.5871,562.8,275.7871,566,272.5871" style="stroke:#181818;stroke-width:0.8000000000000002;"/><line style="stroke:#181818;stroke-width:0.8000000000000002;" x1="349.6" x2="567.6" y1="272.5871" y2="272.5871"/><text fill="#000000" font-family="sans-serif" font-size="10.4" lengthAdjust="spacing" textLength="85.6" x="355.2" y="267.9399">setDateajout(null)</text><polygon fill="#181818" points="358.4,280.5871,350.4,283.7871,358.4,286.9871,355.2,283.7871" style="stroke:#181818;stroke-width:0.8000000000000002;"/><line style="stroke:#181818;stroke-width:0.8000000000000002;stroke-dasharray:2.0,2.0;" x1="353.6" x2="575.6" y1="283.7871" y2="283.7871"/><polygon fill="#181818" points="562.8,305.9519,570.8,309.1519,562.8,312.3519,566,309.1519" style="stroke:#181818;stroke-width:0.8000000000000002;"/><line style="stroke:#181818;stroke-width:0.8000000000000002;" x1="349.6" x2="567.6" y1="309.1519" y2="309.1519"/><text fill="#000000" font-family="sans-serif" font-size="10.4" lengthAdjust="spacing" textLength="96" x="355.2" y="304.5047">setNom(ticket.nom)</text><polygon fill="#181818" points="358.4,317.1519,350.4,320.3519,358.4,323.5519,355.2,320.3519" style="stroke:#181818;stroke-width:0.8000000000000002;"/><line style="stroke:#181818;stroke-width:0.8000000000000002;stroke-dasharray:2.0,2.0;" x1="353.6" x2="575.6" y1="320.3519" y2="320.3519"/><polygon fill="#181818" points="562.8,342.5167,570.8,345.7167,562.8,348.9167,566,345.7167" style="stroke:#181818;stroke-width:0.8000000000000002;"/><line style="stroke:#181818;stroke-width:0.8000000000000002;" x1="349.6" x2="567.6" y1="345.7167" y2="345.7167"/><text fill="#000000" font-family="sans-serif" font-size="10.4" lengthAdjust="spacing" textLength="126.4" x="355.2" y="341.0695">setPrenom(ticket.prenom)</text><polygon fill="#181818" points="358.4,353.7167,350.4,356.9167,358.4,360.1167,355.2,356.9167" style="stroke:#181818;stroke-width:0.8000000000000002;"/><line style="stroke:#181818;stroke-width:0.8000000000000002;stroke-dasharray:2.0,2.0;" x1="353.6" x2="575.6" y1="356.9167" y2="356.9167"/><polygon fill="#181818" points="562.8,379.0815,570.8,382.2815,562.8,385.4815,566,382.2815" style="stroke:#181818;stroke-width:0.8000000000000002;"/><line style="stroke:#181818;stroke-width:0.8000000000000002;" x1="349.6" x2="567.6" y1="382.2815" y2="382.2815"/><text fill="#000000" font-family="sans-serif" font-size="10.4" lengthAdjust="spacing" textLength="148.8" x="355.2" y="377.6343">setTelephone(ticket.telephone)</text><polygon fill="#181818" points="358.4,390.2815,350.4,393.4815,358.4,396.6815,355.2,393.4815" style="stroke:#181818;stroke-width:0.8000000000000002;"/><line style="stroke:#181818;stroke-width:0.8000000000000002;stroke-dasharray:2.0,2.0;" x1="353.6" x2="575.6" y1="393.4815" y2="393.4815"/><polygon fill="#181818" points="562.8,415.6463,570.8,418.8463,562.8,422.0463,566,418.8463" style="stroke:#181818;stroke-width:0.8000000000000002;"/><line style="stroke:#181818;stroke-width:0.8000000000000002;" x1="349.6" x2="567.6" y1="418.8463" y2="418.8463"/><text fill="#000000" font-family="sans-serif" font-size="10.4" lengthAdjust="spacing" textLength="28" x="355.2" y="414.1991">save()</text><polygon fill="#181818" points="713.2,441.0111,721.2,444.2111,713.2,447.4111,716.4,444.2111" style="stroke:#181818;stroke-width:0.8000000000000002;"/><line style="stroke:#181818;stroke-width:0.8000000000000002;" x1="580.4" x2="718" y1="444.2111" y2="444.2111"/><text fill="#000000" font-family="sans-serif" font-size="10.4" lengthAdjust="spacing" textLength="127.2" x="586" y="439.5639">UPDATE reservation SET ....</text><polygon fill="#181818" points="589.2,452.2111,581.2,455.4111,589.2,458.6111,586,455.4111" style="stroke:#181818;stroke-width:0.8000000000000002;"/><line style="stroke:#181818;stroke-width:0.8000000000000002;stroke-dasharray:2.0,2.0;" x1="584.4" x2="726" y1="455.4111" y2="455.4111"/><polygon fill="#181818" points="358.4,463.4111,350.4,466.6111,358.4,469.8111,355.2,466.6111" style="stroke:#181818;stroke-width:0.8000000000000002;"/><line style="stroke:#181818;stroke-width:0.8000000000000002;stroke-dasharray:2.0,2.0;" x1="353.6" x2="575.6" y1="466.6111" y2="466.6111"/><polygon fill="#181818" points="113.6,474.6111,105.6,477.8111,113.6,481.0111,110.4,477.8111" style="stroke:#181818;stroke-width:0.8000000000000002;"/><line style="stroke:#181818;stroke-width:0.8000000000000002;stroke-dasharray:2.0,2.0;" x1="108.8" x2="344.8" y1="477.8111" y2="477.8111"/><polygon fill="#181818" points="29.6,485.8111,21.6,489.0111,29.6,492.2111,26.4,489.0111" style="stroke:#181818;stroke-width:0.8000000000000002;"/><line style="stroke:#181818;stroke-width:0.8000000000000002;stroke-dasharray:2.0,2.0;" x1="24.8" x2="100" y1="489.0111" y2="489.0111"/><!--SRC=[pPJ1JiCm38RlUGfhbms9hH8Nf0aXWROZC8t2tMqjABH9I9mXtXudszX07MCIX_MI9ldz-O-LkF_CRFquoso3caFRZ4hJPfxU0kcIXbMDJmvRfR8-1ZOwj0MvVgOKrzmGN3T6X0w29c0iPAL2xK56HvunE662194pS0xM10TdOCbvepLvfTwfWE4beArX3BEx-nooXF4AIwuNo1Jtb8e2qVKykKLTqbpWfYSXaaLMoEKnQA1DUmhMKHgP6hBFHfFyrkKhySc6-PsZr0zkLwQAIlTX-OQynoSQx4F-97OXbmnLqKvVfQEql3pc6EPfHAwDxdMPxj998Z352vLyWrPAFn9czOXDs1pY09GddeWbV3611peqpNO9_cBpOZZS8TokGwVWC9ktfbqTS2JtuMXjpj9rNJjTNjwZDPkltzJQxzSZErBBkA31NciAvAjG6WzwWg9Ayswav2eg0J_C9bVvTDL-qXxSJtCOoPUYlpB-Iej5M0asfrR_MQhODrFyzyRoIyk97Jb6nBQx9OlJJm00]--></g></svg>